<svg width="24" height="25" viewBox="0 0 24 25" fill="none" xmlns="http://www.w3.org/2000/svg">
<path d="M8 7.5H16C17.8856 7.5 18.8284 7.5 19.4142 8.08579C20 8.67157 20 9.61438 20 11.5V15.5C20 18.7998 20 20.4497 18.9749 21.4749C17.9497 22.5 16.2998 22.5 13 22.5H11C7.70017 22.5 6.05025 22.5 5.02513 21.4749C4 20.4497 4 18.7998 4 15.5V11.5C4 9.61438 4 8.67157 4.58579 8.08579C5.17157 7.5 6.11438 7.5 8 7.5Z" stroke="#007AFF" stroke-width="1.5" stroke-linecap="round" stroke-linejoin="round"/>
<path d="M16 10C16 6.13401 14.2091 2.5 12 2.5C9.79086 2.5 8 6.13401 8 10" stroke="#007AFF" stroke-width="1.5" stroke-linecap="round" stroke-linejoin="round"/>
</svg>
