<svg width="49" height="42" viewBox="0 0 49 42" fill="none" xmlns="http://www.w3.org/2000/svg">
<path d="M21.875 20.5625C21.875 20.9106 21.7367 21.2444 21.4906 21.4906C21.2444 21.7367 20.9106 21.875 20.5625 21.875H10.0625C9.7144 21.875 9.38056 21.7367 9.13442 21.4906C8.88828 21.2444 8.75 20.9106 8.75 20.5625C8.75 20.2144 8.88828 19.8806 9.13442 19.6344C9.38056 19.3883 9.7144 19.25 10.0625 19.25H20.5625C20.9106 19.25 21.2444 19.3883 21.4906 19.6344C21.7367 19.8806 21.875 20.2144 21.875 20.5625ZM20.5625 12.25H10.0625C9.7144 12.25 9.38056 12.3883 9.13442 12.6344C8.88828 12.8806 8.75 13.2144 8.75 13.5625C8.75 13.9106 8.88828 14.2444 9.13442 14.4906C9.38056 14.7367 9.7144 14.875 10.0625 14.875H20.5625C20.9106 14.875 21.2444 14.7367 21.4906 14.4906C21.7367 14.2444 21.875 13.9106 21.875 13.5625C21.875 13.2144 21.7367 12.8806 21.4906 12.6344C21.2444 12.3883 20.9106 12.25 20.5625 12.25ZM44.625 25.9481V39.8125C44.6255 40.0431 44.5653 40.2699 44.4503 40.4698C44.3353 40.6698 44.1697 40.8359 43.9701 40.9514C43.7705 41.067 43.5439 41.1279 43.3133 41.128C43.0826 41.1282 42.856 41.0675 42.6563 40.9522L37.1875 37.8241L31.7188 40.9522C31.519 41.0675 31.2924 41.1282 31.0617 41.128C30.8311 41.1279 30.6046 41.067 30.4049 40.9514C30.2053 40.8359 30.0397 40.6698 29.9247 40.4698C29.8097 40.2699 29.7495 40.0431 29.75 39.8125V34.125H3.0625C2.25027 34.125 1.47132 33.8023 0.896986 33.228C0.322656 32.6537 0 31.8747 0 31.0625V3.0625C0 2.25027 0.322656 1.47132 0.896986 0.896986C1.47132 0.322655 2.25027 0 3.0625 0H41.5625C42.3747 0 43.1537 0.322655 43.728 0.896986C44.3023 1.47132 44.625 2.25027 44.625 3.0625V9.92687C45.7287 10.949 46.6094 12.1881 47.2116 13.5666C47.8138 14.9451 48.1247 16.4332 48.1247 17.9375C48.1247 19.4418 47.8138 20.9299 47.2116 22.3084C46.6094 23.6869 45.7287 24.926 44.625 25.9481ZM37.1875 9.625C35.5434 9.625 33.9363 10.1125 32.5693 11.0259C31.2023 11.9393 30.1369 13.2375 29.5078 14.7564C28.8786 16.2754 28.714 17.9467 29.0347 19.5592C29.3555 21.1717 30.1472 22.6528 31.3097 23.8153C32.4722 24.9778 33.9533 25.7695 35.5658 26.0903C37.1783 26.411 38.8496 26.2464 40.3686 25.6172C41.8875 24.9881 43.1857 23.9227 44.0991 22.5557C45.0125 21.1887 45.5 19.5816 45.5 17.9375C45.5 15.7329 44.6242 13.6186 43.0653 12.0597C41.5064 10.5008 39.3921 9.625 37.1875 9.625ZM29.75 31.5V25.9481C27.8348 24.1608 26.6248 21.7455 26.3399 19.1414C26.055 16.5373 26.7142 13.9175 28.1976 11.7583C29.681 9.59918 31.89 8.04416 34.423 7.37606C36.956 6.70796 39.6447 6.97117 42 8.11781V3.0625C42 2.94647 41.9539 2.83519 41.8719 2.75314C41.7898 2.67109 41.6785 2.625 41.5625 2.625H3.0625C2.94647 2.625 2.83519 2.67109 2.75314 2.75314C2.67109 2.83519 2.625 2.94647 2.625 3.0625V31.0625C2.625 31.1785 2.67109 31.2898 2.75314 31.3719C2.83519 31.4539 2.94647 31.5 3.0625 31.5H29.75ZM42 27.7572C40.5023 28.4927 38.856 28.8751 37.1875 28.8751C35.519 28.8751 33.8727 28.4927 32.375 27.7572V37.5506L36.5313 35.1728C36.7308 35.0576 36.9571 34.997 37.1875 34.997C37.4179 34.997 37.6442 35.0576 37.8438 35.1728L42 37.5506V27.7572Z" fill="#263138"/>
</svg>
