<svg width="56" height="56" viewBox="0 0 56 56" fill="none" xmlns="http://www.w3.org/2000/svg">
<path d="M32.6663 19.8346C32.6663 13.3913 27.4429 8.16797 20.9997 8.16797C14.5564 8.16797 9.33301 13.3913 9.33301 19.8346C9.33301 26.2779 14.5564 31.5013 20.9997 31.5013C27.4429 31.5013 32.6663 26.2779 32.6663 19.8346Z" stroke="#263138" stroke-width="2.5" stroke-linecap="round" stroke-linejoin="round"/>
<path d="M37.3337 47.8333C37.3337 38.8127 30.021 31.5 21.0003 31.5C11.9797 31.5 4.66699 38.8127 4.66699 47.8333" stroke="#263138" stroke-width="2.5" stroke-linecap="round" stroke-linejoin="round"/>
<path d="M45.5423 20.843L46.7741 23.327C46.9421 23.6729 47.3901 24.0045 47.7681 24.068L50.0009 24.442C51.4286 24.6821 51.7646 25.7265 50.7356 26.7567L48.9999 28.5069C48.7059 28.8032 48.5449 29.3749 48.6359 29.7842L49.1329 31.9507C49.5249 33.6657 48.6219 34.329 47.1171 33.4328L45.0243 32.1838C44.6463 31.9579 44.0236 31.9579 43.6386 32.1838L41.5458 33.4328C40.048 34.329 39.138 33.6587 39.53 31.9507L40.027 29.7842C40.1178 29.3749 39.957 28.8032 39.663 28.5069L37.9273 26.7567C36.9053 25.7265 37.2343 24.6821 38.662 24.442L40.8948 24.068C41.2658 24.0045 41.7138 23.6729 41.8818 23.327L43.1136 20.843C43.7856 19.4951 44.8773 19.4951 45.5423 20.843Z" stroke="#263138" stroke-width="2.5" stroke-linecap="round" stroke-linejoin="round"/>
</svg>
