<svg width="43" height="40" viewBox="0 0 43 40" fill="none" xmlns="http://www.w3.org/2000/svg">
<path d="M36.6327 2.59939C38.927 3.01556 39.4418 4.38397 40.1268 8.18112C40.7438 11.6009 40.9167 15.7048 40.9167 17.4517C40.8539 18.0955 40.5741 18.6963 40.1268 19.1863C35.3293 23.9347 25.8086 32.9017 21.0033 37.356C19.1175 38.9462 16.2724 38.9805 14.2711 37.521C10.1728 34.0394 6.23526 30.104 2.378 26.5501C0.828367 24.665 0.864697 21.9854 2.55317 20.2095C7.63659 15.2288 16.835 6.70372 22.0276 1.99403C22.5482 1.5727 23.1861 1.30917 23.8698 1.25C25.0348 1.24972 27.0336 1.39763 28.9805 1.50424" stroke="#263138" stroke-width="2.5" stroke-linecap="round"/>
</svg>
